<svg xmlns="http://www.w3.org/2000/svg" viewBox="1429 546 90 90">
  <defs>
    <style>
      .cls-1 {
        fill: #da3778;
      }

      .cls-2 {
        fill: #fff;
      }
    </style>
  </defs>
  <g id="Group_6" data-name="Group 6" transform="translate(1 -3)">
    <circle id="Ellipse_2" data-name="Ellipse 2" class="cls-1" cx="45" cy="45" r="45" transform="translate(1428 549)"/>
    <g id="Group_5" data-name="Group 5" transform="translate(5.922 -8.375)">
      <path id="hearteyes_1_" data-name="hearteyes (1)" class="cls-2" d="M82.9,38.4a6.821,6.821,0,0,0-9.7,0l-1.7,1.7-1.7-1.7a6.858,6.858,0,1,0-9.7,9.7L71.5,59.5,82.9,48.1a6.814,6.814,0,0,0,0-9.7Z" transform="translate(1417 552)"/>
      <path id="hearteyes_1_2" data-name="hearteyes (1)" class="cls-2" d="M82.9,38.4a6.821,6.821,0,0,0-9.7,0l-1.7,1.7-1.7-1.7a6.858,6.858,0,1,0-9.7,9.7L71.5,59.5,82.9,48.1a6.814,6.814,0,0,0,0-9.7Z" transform="translate(1374 552)"/>
      <path id="hearteyes_1_3" data-name="hearteyes (1)" class="cls-2" d="M50,80.7A16.942,16.942,0,0,0,66.9,63.8H33.1A16.939,16.939,0,0,0,50,80.7Z" transform="translate(1417 552)"/>
    </g>
  </g>
</svg>
