<?xml version="1.0" encoding="UTF-8"?>
<svg fill="#FFFFFF" width="100pt" height="100pt" version="1.1" viewBox="0 0 100 100" xmlns="http://www.w3.org/2000/svg">
 <path d="m50 80.699c9.3008 0 16.898-7.6016 16.898-16.898h-33.797c0 9.3008 7.5977 16.898 16.898 16.898zm0-75.699c-24.898 0-45 20.102-45 45s20.102 45 45 45 45-20.102 45-45-20.102-45-45-45zm0 85c-22.102 0-40-17.898-40-40s17.898-40 40-40 40 17.898 40 40-17.898 40-40 40zm-10.199-41.898c2.6992-2.6992 2.6992-7 0-9.6992-2.6992-2.6992-7-2.6992-9.6992 0l-1.6992 1.6992-1.6992-1.6992c-2.6992-2.6992-7-2.6992-9.6992 0-2.6992 2.6992-2.6992 7 0 9.6992l11.398 11.398zm43.098-9.7031c-2.6992-2.6992-7-2.6992-9.6992 0l-1.6992 1.6992-1.6992-1.6992c-2.6992-2.6992-7-2.6992-9.6992 0-2.6992 2.6992-2.6992 7 0 9.6992l11.398 11.398 11.398-11.398c2.7031-2.6992 2.7031-7.0977 0-9.6992z"/>
</svg>
